{
  "style": "electronic",
  "tempo": 120,
  "duration": 10,
  "note_count": 75,
  "notes": [
    {
      "pitch": 60,
      "velocity": 0.894,
      "start_time": 0.0,
      "duration": 0.0625,
      "octave": 4,
      "note_name": "C4",
      "frequency": 261.6255653005986
    },
    {
      "pitch": 48,
      "velocity": 0.3,
      "start_time": 0.0,
      "duration": 2.0,
      "octave": 3,
      "note_name": "C3",
      "frequency": 130.8127826502993
    },
    {
      "pitch": 51,
      "velocity": 0.4,
      "start_time": 0.0,
      "duration": 2.0,
      "octave": 3,
      "note_name": "D#3",
      "frequency": 155.56349186104046
    },
    {
      "pitch": 55,
      "velocity": 0.5,
      "start_time": 0.0,
      "duration": 2.0,
      "octave": 3,
      "note_name": "G3",
      "frequency": 195.99771799087463
    },
    {
      "pitch": 60,
      "velocity": 0.813,
      "start_time": 0.125,
      "duration": 0.5,
      "octave": 4,
      "note_name": "C4",
      "frequency": 261.6255653005986
    },
    {
      "pitch": 48,
      "velocity": 0.693,
      "start_time": 0.25,
      "duration": 0.0625,
      "octave": 3,
      "note_name": "C3",
      "frequency": 130.8127826502993
    },
    {
      "pitch": 48,
      "velocity": 0.735,
      "start_time": 0.375,
      "duration": 0.5,
      "octave": 3,
      "note_name": "C3",
      "frequency": 130.8127826502993
    },
    {
      "pitch": 72,
      "velocity": 0.795,
      "start_time": 0.5,
      "duration": 0.25,
      "octave": 5,
      "note_name": "C5",
      "frequency": 523.2511306011972
    },
    {
      "pitch": 60,
      "velocity": 0.738,
      "start_time": 0.75,
      "duration": 0.25,
      "octave": 4,
      "note_name": "C4",
      "frequency": 261.6255653005986
    },
    {
      "pitch": 48,
      "velocity": 0.609,
      "start_time": 0.875,
      "duration": 0.125,
      "octave": 3,
      "note_name": "C3",
      "frequency": 130.8127826502993
    },
    {
      "pitch": 60,
      "velocity": 0.786,
      "start_time": 1.375,
      "duration": 0.125,
      "octave": 4,
      "note_name": "C4",
      "frequency": 261.6255653005986
    },
    {
      "pitch": 48,
      "velocity": 0.66,
      "start_time": 1.5,
      "duration": 0.5,
      "octave": 3,
      "note_name": "C3",
      "frequency": 130.8127826502993
    },
    {
      "pitch": 72,
      "velocity": 0.855,
      "start_time": 1.625,
      "duration": 0.125,
      "octave": 5,
      "note_name": "C5",
      "frequency": 523.2511306011972
    },
    {
      "pitch": 72,
      "velocity": 0.735,
      "start_time": 1.75,
      "duration": 0.125,
      "octave": 5,
      "note_name": "C5",
      "frequency": 523.2511306011972
    },
    {
      "pitch": 60,
      "velocity": 0.837,
      "start_time": 1.875,
      "duration": 0.25,
      "octave": 4,
      "note_name": "C4",
      "frequency": 261.6255653005986
    },
    {
      "pitch": 72,
      "velocity": 0.8760000000000001,
      "start_time": 2.0,
      "duration": 0.125,
      "octave": 5,
      "note_name": "C5",
      "frequency": 523.2511306011972
    },
    {
      "pitch": 68,
      "velocity": 0.3,
      "start_time": 2.0,
      "duration": 2.0,
      "octave": 3,
      "note_name": "G#3",
      "frequency": 415.3046975799451
    },
    {
      "pitch": 60,
      "velocity": 0.4,
      "start_time": 2.0,
      "duration": 2.0,
      "octave": 3,
      "note_name": "C3",
      "frequency": 261.6255653005986
    },
    {
      "pitch": 63,
      "velocity": 0.5,
      "start_time": 2.0,
      "duration": 2.0,
      "octave": 3,
      "note_name": "D#3",
      "frequency": 311.1269837220809
    },
    {
      "pitch": 60,
      "velocity": 0.882,
      "start_time": 2.125,
      "duration": 0.0625,
      "octave": 4,
      "note_name": "C4",
      "frequency": 261.6255653005986
    },
    {
      "pitch": 60,
      "velocity": 0.618,
      "start_time": 2.25,
      "duration": 0.0625,
      "octave": 4,
      "note_name": "C4",
      "frequency": 261.6255653005986
    },
    {
      "pitch": 72,
      "velocity": 0.8760000000000001,
      "start_time": 2.875,
      "duration": 0.5,
      "octave": 5,
      "note_name": "C5",
      "frequency": 523.2511306011972
    },
    {
      "pitch": 72,
      "velocity": 0.6869999999999999,
      "start_time": 3.0,
      "duration": 0.125,
      "octave": 5,
      "note_name": "C5",
      "frequency": 523.2511306011972
    },
    {
      "pitch": 72,
      "velocity": 0.75,
      "start_time": 3.25,
      "duration": 0.125,
      "octave": 5,
      "note_name": "C5",
      "frequency": 523.2511306011972
    },
    {
      "pitch": 48,
      "velocity": 0.675,
      "start_time": 3.5,
      "duration": 0.25,
      "octave": 3,
      "note_name": "C3",
      "frequency": 130.8127826502993
    },
    {
      "pitch": 60,
      "velocity": 0.798,
      "start_time": 3.625,
      "duration": 0.5,
      "octave": 4,
      "note_name": "C4",
      "frequency": 261.6255653005986
    },
    {
      "pitch": 48,
      "velocity": 0.771,
      "start_time": 3.75,
      "duration": 0.125,
      "octave": 3,
      "note_name": "C3",
      "frequency": 130.8127826502993
    },
    {
      "pitch": 48,
      "velocity": 0.831,
      "start_time": 3.875,
      "duration": 0.5,
      "octave": 3,
      "note_name": "C3",
      "frequency": 130.8127826502993
    },
    {
      "pitch": 60,
      "velocity": 0.843,
      "start_time": 4.0,
      "duration": 0.5,
      "octave": 4,
      "note_name": "C4",
      "frequency": 261.6255653005986
    },
    {
      "pitch": 58,
      "velocity": 0.3,
      "start_time": 4.0,
      "duration": 2.0,
      "octave": 3,
      "note_name": "A#3",
      "frequency": 233.08188075904496
    },
    {
      "pitch": 61,
      "velocity": 0.4,
      "start_time": 4.0,
      "duration": 2.0,
      "octave": 3,
      "note_name": "C#3",
      "frequency": 277.1826309768721
    },
    {
      "pitch": 53,
      "velocity": 0.5,
      "start_time": 4.0,
      "duration": 2.0,
      "octave": 3,
      "note_name": "F3",
      "frequency": 174.61411571650194
    },
    {
      "pitch": 48,
      "velocity": 0.849,
      "start_time": 4.25,
      "duration": 0.0625,
      "octave": 3,
      "note_name": "C3",
      "frequency": 130.8127826502993
    },
    {
      "pitch": 72,
      "velocity": 0.831,
      "start_time": 4.375,
      "duration": 0.125,
      "octave": 5,
      "note_name": "C5",
      "frequency": 523.2511306011972
    },
    {
      "pitch": 60,
      "velocity": 0.753,
      "start_time": 4.5,
      "duration": 0.5,
      "octave": 4,
      "note_name": "C4",
      "frequency": 261.6255653005986
    },
    {
      "pitch": 48,
      "velocity": 0.849,
      "start_time": 4.625,
      "duration": 0.0625,
      "octave": 3,
      "note_name": "C3",
      "frequency": 130.8127826502993
    },
    {
      "pitch": 60,
      "velocity": 0.777,
      "start_time": 4.75,
      "duration": 0.25,
      "octave": 4,
      "note_name": "C4",
      "frequency": 261.6255653005986
    },
    {
      "pitch": 60,
      "velocity": 0.669,
      "start_time": 5.0,
      "duration": 0.5,
      "octave": 4,
      "note_name": "C4",
      "frequency": 261.6255653005986
    },
    {
      "pitch": 48,
      "velocity": 0.894,
      "start_time": 5.25,
      "duration": 0.25,
      "octave": 3,
      "note_name": "C3",
      "frequency": 130.8127826502993
    },
    {
      "pitch": 60,
      "velocity": 0.648,
      "start_time": 5.5,
      "duration": 0.125,
      "octave": 4,
      "note_name": "C4",
      "frequency": 261.6255653005986
    },
    {
      "pitch": 72,
      "velocity": 0.804,
      "start_time": 5.625,
      "duration": 0.25,
      "octave": 5,
      "note_name": "C5",
      "frequency": 523.2511306011972
    },
    {
      "pitch": 72,
      "velocity": 0.813,
      "start_time": 5.75,
      "duration": 0.0625,
      "octave": 5,
      "note_name": "C5",
      "frequency": 523.2511306011972
    },
    {
      "pitch": 48,
      "velocity": 0.624,
      "start_time": 6.0,
      "duration": 0.125,
      "octave": 3,
      "note_name": "C3",
      "frequency": 130.8127826502993
    },
    {
      "pitch": 62,
      "velocity": 0.3,
      "start_time": 6.0,
      "duration": 2.0,
      "octave": 3,
      "note_name": "D3",
      "frequency": 293.6647679174076
    },
    {
      "pitch": 65,
      "velocity": 0.4,
      "start_time": 6.0,
      "duration": 2.0,
      "octave": 3,
      "note_name": "F3",
      "frequency": 349.2282314330039
    },
    {
      "pitch": 57,
      "velocity": 0.5,
      "start_time": 6.0,
      "duration": 2.0,
      "octave": 3,
      "note_name": "A3",
      "frequency": 220.0
    },
    {
      "pitch": 60,
      "velocity": 0.843,
      "start_time": 6.125,
      "duration": 0.125,
      "octave": 4,
      "note_name": "C4",
      "frequency": 261.6255653005986
    },
    {
      "pitch": 72,
      "velocity": 0.867,
      "start_time": 6.5,
      "duration": 0.25,
      "octave": 5,
      "note_name": "C5",
      "frequency": 523.2511306011972
    },
    {
      "pitch": 60,
      "velocity": 0.615,
      "start_time": 6.625,
      "duration": 0.25,
      "octave": 4,
      "note_name": "C4",
      "frequency": 261.6255653005986
    },
    {
      "pitch": 72,
      "velocity": 0.855,
      "start_time": 6.75,
      "duration": 0.5,
      "octave": 5,
      "note_name": "C5",
      "frequency": 523.2511306011972
    },
    {
      "pitch": 72,
      "velocity": 0.81,
      "start_time": 6.875,
      "duration": 0.125,
      "octave": 5,
      "note_name": "C5",
      "frequency": 523.2511306011972
    },
    {
      "pitch": 60,
      "velocity": 0.819,
      "start_time": 7.0,
      "duration": 0.5,
      "octave": 4,
      "note_name": "C4",
      "frequency": 261.6255653005986
    },
    {
      "pitch": 72,
      "velocity": 0.738,
      "start_time": 7.125,
      "duration": 0.5,
      "octave": 5,
      "note_name": "C5",
      "frequency": 523.2511306011972
    },
    {
      "pitch": 72,
      "velocity": 0.726,
      "start_time": 7.25,
      "duration": 0.125,
      "octave": 5,
      "note_name": "C5",
      "frequency": 523.2511306011972
    },
    {
      "pitch": 60,
      "velocity": 0.786,
      "start_time": 7.375,
      "duration": 0.0625,
      "octave": 4,
      "note_name": "C4",
      "frequency": 261.6255653005986
    },
    {
      "pitch": 48,
      "velocity": 0.741,
      "start_time": 7.5,
      "duration": 0.0625,
      "octave": 3,
      "note_name": "C3",
      "frequency": 130.8127826502993
    },
    {
      "pitch": 72,
      "velocity": 0.735,
      "start_time": 7.625,
      "duration": 0.125,
      "octave": 5,
      "note_name": "C5",
      "frequency": 523.2511306011972
    },
    {
      "pitch": 60,
      "velocity": 0.801,
      "start_time": 7.875,
      "duration": 0.25,
      "octave": 4,
      "note_name": "C4",
      "frequency": 261.6255653005986
    },
    {
      "pitch": 48,
      "velocity": 0.753,
      "start_time": 8.0,
      "duration": 0.5,
      "octave": 3,
      "note_name": "C3",
      "frequency": 130.8127826502993
    },
    {
      "pitch": 48,
      "velocity": 0.3,
      "start_time": 8.0,
      "duration": 2.0,
      "octave": 3,
      "note_name": "C3",
      "frequency": 130.8127826502993
    },
    {
      "pitch": 51,
      "velocity": 0.4,
      "start_time": 8.0,
      "duration": 2.0,
      "octave": 3,
      "note_name": "D#3",
      "frequency": 155.56349186104046
    },
    {
      "pitch": 55,
      "velocity": 0.5,
      "start_time": 8.0,
      "duration": 2.0,
      "octave": 3,
      "note_name": "G3",
      "frequency": 195.99771799087463
    },
    {
      "pitch": 60,
      "velocity": 0.603,
      "start_time": 8.25,
      "duration": 0.25,
      "octave": 4,
      "note_name": "C4",
      "frequency": 261.6255653005986
    },
    {
      "pitch": 60,
      "velocity": 0.6779999999999999,
      "start_time": 8.375,
      "duration": 0.125,
      "octave": 4,
      "note_name": "C4",
      "frequency": 261.6255653005986
    },
    {
      "pitch": 72,
      "velocity": 0.777,
      "start_time": 8.5,
      "duration": 0.25,
      "octave": 5,
      "note_name": "C5",
      "frequency": 523.2511306011972
    },
    {
      "pitch": 72,
      "velocity": 0.852,
      "start_time": 8.625,
      "duration": 0.0625,
      "octave": 5,
      "note_name": "C5",
      "frequency": 523.2511306011972
    },
    {
      "pitch": 60,
      "velocity": 0.726,
      "start_time": 8.75,
      "duration": 0.125,
      "octave": 4,
      "note_name": "C4",
      "frequency": 261.6255653005986
    },
    {
      "pitch": 60,
      "velocity": 0.717,
      "start_time": 8.875,
      "duration": 0.5,
      "octave": 4,
      "note_name": "C4",
      "frequency": 261.6255653005986
    },
    {
      "pitch": 72,
      "velocity": 0.813,
      "start_time": 9.0,
      "duration": 0.5,
      "octave": 5,
      "note_name": "C5",
      "frequency": 523.2511306011972
    },
    {
      "pitch": 48,
      "velocity": 0.711,
      "start_time": 9.125,
      "duration": 0.5,
      "octave": 3,
      "note_name": "C3",
      "frequency": 130.8127826502993
    },
    {
      "pitch": 72,
      "velocity": 0.804,
      "start_time": 9.25,
      "duration": 0.5,
      "octave": 5,
      "note_name": "C5",
      "frequency": 523.2511306011972
    },
    {
      "pitch": 48,
      "velocity": 0.858,
      "start_time": 9.5,
      "duration": 0.0625,
      "octave": 3,
      "note_name": "C3",
      "frequency": 130.8127826502993
    },
    {
      "pitch": 60,
      "velocity": 0.735,
      "start_time": 9.625,
      "duration": 0.125,
      "octave": 4,
      "note_name": "C4",
      "frequency": 261.6255653005986
    },
    {
      "pitch": 60,
      "velocity": 0.717,
      "start_time": 9.75,
      "duration": 0.25,
      "octave": 4,
      "note_name": "C4",
      "frequency": 261.6255653005986
    },
    {
      "pitch": 72,
      "velocity": 0.831,
      "start_time": 9.875,
      "duration": 0.25,
      "octave": 5,
      "note_name": "C5",
      "frequency": 523.2511306011972
    }
  ]
}