{
  "style": "ambient",
  "tempo": 120,
  "duration": 10,
  "note_count": 44,
  "notes": [
    {
      "pitch": 70,
      "velocity": 0.592,
      "start_time": 0.0,
      "duration": 0.25,
      "octave": 4,
      "note_name": "A#4",
      "frequency": 466.1637615180899
    },
    {
      "pitch": 48,
      "velocity": 0.3,
      "start_time": 0.0,
      "duration": 2.0,
      "octave": 3,
      "note_name": "C3",
      "frequency": 130.8127826502993
    },
    {
      "pitch": 51,
      "velocity": 0.4,
      "start_time": 0.0,
      "duration": 2.0,
      "octave": 3,
      "note_name": "D#3",
      "frequency": 155.56349186104046
    },
    {
      "pitch": 55,
      "velocity": 0.5,
      "start_time": 0.0,
      "duration": 2.0,
      "octave": 3,
      "note_name": "G3",
      "frequency": 195.99771799087463
    },
    {
      "pitch": 70,
      "velocity": 0.484,
      "start_time": 0.125,
      "duration": 2.0,
      "octave": 4,
      "note_name": "A#4",
      "frequency": 466.1637615180899
    },
    {
      "pitch": 58,
      "velocity": 0.324,
      "start_time": 0.25,
      "duration": 0.25,
      "octave": 3,
      "note_name": "A#3",
      "frequency": 233.08188075904496
    },
    {
      "pitch": 58,
      "velocity": 0.21200000000000002,
      "start_time": 0.875,
      "duration": 0.5,
      "octave": 3,
      "note_name": "A#3",
      "frequency": 233.08188075904496
    },
    {
      "pitch": 58,
      "velocity": 0.28,
      "start_time": 1.5,
      "duration": 2.0,
      "octave": 3,
      "note_name": "A#3",
      "frequency": 233.08188075904496
    },
    {
      "pitch": 82,
      "velocity": 0.54,
      "start_time": 1.625,
      "duration": 0.5,
      "octave": 5,
      "note_name": "A#5",
      "frequency": 932.3275230361799
    },
    {
      "pitch": 82,
      "velocity": 0.38,
      "start_time": 1.75,
      "duration": 0.5,
      "octave": 5,
      "note_name": "A#5",
      "frequency": 932.3275230361799
    },
    {
      "pitch": 70,
      "velocity": 0.516,
      "start_time": 1.875,
      "duration": 1.0,
      "octave": 4,
      "note_name": "A#4",
      "frequency": 466.1637615180899
    },
    {
      "pitch": 82,
      "velocity": 0.5680000000000001,
      "start_time": 2.0,
      "duration": 0.5,
      "octave": 5,
      "note_name": "A#5",
      "frequency": 932.3275230361799
    },
    {
      "pitch": 58,
      "velocity": 0.3,
      "start_time": 2.0,
      "duration": 2.0,
      "octave": 3,
      "note_name": "A#3",
      "frequency": 233.08188075904496
    },
    {
      "pitch": 62,
      "velocity": 0.4,
      "start_time": 2.0,
      "duration": 2.0,
      "octave": 3,
      "note_name": "D3",
      "frequency": 293.6647679174076
    },
    {
      "pitch": 53,
      "velocity": 0.5,
      "start_time": 2.0,
      "duration": 2.0,
      "octave": 3,
      "note_name": "F3",
      "frequency": 174.61411571650194
    },
    {
      "pitch": 82,
      "velocity": 0.316,
      "start_time": 3.0,
      "duration": 0.5,
      "octave": 5,
      "note_name": "A#5",
      "frequency": 932.3275230361799
    },
    {
      "pitch": 82,
      "velocity": 0.4,
      "start_time": 3.25,
      "duration": 0.5,
      "octave": 5,
      "note_name": "A#5",
      "frequency": 932.3275230361799
    },
    {
      "pitch": 58,
      "velocity": 0.3,
      "start_time": 3.5,
      "duration": 1.0,
      "octave": 3,
      "note_name": "A#3",
      "frequency": 233.08188075904496
    },
    {
      "pitch": 70,
      "velocity": 0.464,
      "start_time": 3.625,
      "duration": 2.0,
      "octave": 4,
      "note_name": "A#4",
      "frequency": 466.1637615180899
    },
    {
      "pitch": 58,
      "velocity": 0.42799999999999994,
      "start_time": 3.75,
      "duration": 0.5,
      "octave": 3,
      "note_name": "A#3",
      "frequency": 233.08188075904496
    },
    {
      "pitch": 68,
      "velocity": 0.3,
      "start_time": 4.0,
      "duration": 2.0,
      "octave": 3,
      "note_name": "G#3",
      "frequency": 415.3046975799451
    },
    {
      "pitch": 60,
      "velocity": 0.4,
      "start_time": 4.0,
      "duration": 2.0,
      "octave": 3,
      "note_name": "C3",
      "frequency": 261.6255653005986
    },
    {
      "pitch": 63,
      "velocity": 0.5,
      "start_time": 4.0,
      "duration": 2.0,
      "octave": 3,
      "note_name": "D#3",
      "frequency": 311.1269837220809
    },
    {
      "pitch": 58,
      "velocity": 0.532,
      "start_time": 4.25,
      "duration": 0.25,
      "octave": 3,
      "note_name": "A#3",
      "frequency": 233.08188075904496
    },
    {
      "pitch": 82,
      "velocity": 0.508,
      "start_time": 4.375,
      "duration": 0.5,
      "octave": 5,
      "note_name": "A#5",
      "frequency": 932.3275230361799
    },
    {
      "pitch": 70,
      "velocity": 0.404,
      "start_time": 4.5,
      "duration": 2.0,
      "octave": 4,
      "note_name": "A#4",
      "frequency": 466.1637615180899
    },
    {
      "pitch": 82,
      "velocity": 0.47200000000000003,
      "start_time": 5.625,
      "duration": 1.0,
      "octave": 5,
      "note_name": "A#5",
      "frequency": 932.3275230361799
    },
    {
      "pitch": 62,
      "velocity": 0.3,
      "start_time": 6.0,
      "duration": 2.0,
      "octave": 3,
      "note_name": "D3",
      "frequency": 293.6647679174076
    },
    {
      "pitch": 65,
      "velocity": 0.4,
      "start_time": 6.0,
      "duration": 2.0,
      "octave": 3,
      "note_name": "F3",
      "frequency": 349.2282314330039
    },
    {
      "pitch": 57,
      "velocity": 0.5,
      "start_time": 6.0,
      "duration": 2.0,
      "octave": 3,
      "note_name": "A3",
      "frequency": 220.0
    },
    {
      "pitch": 70,
      "velocity": 0.524,
      "start_time": 6.125,
      "duration": 0.5,
      "octave": 4,
      "note_name": "A#4",
      "frequency": 466.1637615180899
    },
    {
      "pitch": 82,
      "velocity": 0.556,
      "start_time": 6.5,
      "duration": 1.0,
      "octave": 5,
      "note_name": "A#5",
      "frequency": 932.3275230361799
    },
    {
      "pitch": 82,
      "velocity": 0.54,
      "start_time": 6.75,
      "duration": 2.0,
      "octave": 5,
      "note_name": "A#5",
      "frequency": 932.3275230361799
    },
    {
      "pitch": 70,
      "velocity": 0.492,
      "start_time": 7.0,
      "duration": 2.0,
      "octave": 4,
      "note_name": "A#4",
      "frequency": 466.1637615180899
    },
    {
      "pitch": 82,
      "velocity": 0.384,
      "start_time": 7.125,
      "duration": 2.0,
      "octave": 5,
      "note_name": "A#5",
      "frequency": 932.3275230361799
    },
    {
      "pitch": 48,
      "velocity": 0.3,
      "start_time": 8.0,
      "duration": 2.0,
      "octave": 3,
      "note_name": "C3",
      "frequency": 130.8127826502993
    },
    {
      "pitch": 51,
      "velocity": 0.4,
      "start_time": 8.0,
      "duration": 2.0,
      "octave": 3,
      "note_name": "D#3",
      "frequency": 155.56349186104046
    },
    {
      "pitch": 55,
      "velocity": 0.5,
      "start_time": 8.0,
      "duration": 2.0,
      "octave": 3,
      "note_name": "G3",
      "frequency": 195.99771799087463
    },
    {
      "pitch": 70,
      "velocity": 0.20400000000000001,
      "start_time": 8.25,
      "duration": 1.0,
      "octave": 4,
      "note_name": "A#4",
      "frequency": 466.1637615180899
    },
    {
      "pitch": 82,
      "velocity": 0.43599999999999994,
      "start_time": 8.5,
      "duration": 1.0,
      "octave": 5,
      "note_name": "A#5",
      "frequency": 932.3275230361799
    },
    {
      "pitch": 70,
      "velocity": 0.356,
      "start_time": 8.875,
      "duration": 2.0,
      "octave": 4,
      "note_name": "A#4",
      "frequency": 466.1637615180899
    },
    {
      "pitch": 58,
      "velocity": 0.544,
      "start_time": 9.5,
      "duration": 0.25,
      "octave": 3,
      "note_name": "A#3",
      "frequency": 233.08188075904496
    },
    {
      "pitch": 70,
      "velocity": 0.356,
      "start_time": 9.75,
      "duration": 1.0,
      "octave": 4,
      "note_name": "A#4",
      "frequency": 466.1637615180899
    },
    {
      "pitch": 82,
      "velocity": 0.508,
      "start_time": 9.875,
      "duration": 1.0,
      "octave": 5,
      "note_name": "A#5",
      "frequency": 932.3275230361799
    }
  ]
}