{
  "style": "rock",
  "tempo": 120,
  "duration": 10,
  "note_count": 84,
  "notes": [
    {
      "pitch": 69,
      "velocity": 0.994,
      "start_time": 0.0,
      "duration": 0.1,
      "octave": 4,
      "note_name": "A4",
      "frequency": 440.0
    },
    {
      "pitch": 48,
      "velocity": 0.3,
      "start_time": 0.0,
      "duration": 2.0,
      "octave": 3,
      "note_name": "C3",
      "frequency": 130.8127826502993
    },
    {
      "pitch": 52,
      "velocity": 0.4,
      "start_time": 0.0,
      "duration": 2.0,
      "octave": 3,
      "note_name": "E3",
      "frequency": 164.81377845643496
    },
    {
      "pitch": 57,
      "velocity": 0.5,
      "start_time": 0.0,
      "duration": 2.0,
      "octave": 3,
      "note_name": "A3",
      "frequency": 220.0
    },
    {
      "pitch": 69,
      "velocity": 0.913,
      "start_time": 0.125,
      "duration": 0.8,
      "octave": 4,
      "note_name": "A4",
      "frequency": 440.0
    },
    {
      "pitch": 69,
      "velocity": 0.7929999999999999,
      "start_time": 0.25,
      "duration": 0.1,
      "octave": 4,
      "note_name": "A4",
      "frequency": 440.0
    },
    {
      "pitch": 81,
      "velocity": 0.835,
      "start_time": 0.375,
      "duration": 0.8,
      "octave": 5,
      "note_name": "A5",
      "frequency": 880.0
    },
    {
      "pitch": 69,
      "velocity": 0.895,
      "start_time": 0.5,
      "duration": 0.4,
      "octave": 4,
      "note_name": "A4",
      "frequency": 440.0
    },
    {
      "pitch": 81,
      "velocity": 0.838,
      "start_time": 0.75,
      "duration": 0.4,
      "octave": 5,
      "note_name": "A5",
      "frequency": 880.0
    },
    {
      "pitch": 69,
      "velocity": 0.709,
      "start_time": 0.875,
      "duration": 0.2,
      "octave": 4,
      "note_name": "A4",
      "frequency": 440.0
    },
    {
      "pitch": 69,
      "velocity": 0.736,
      "start_time": 1.0,
      "duration": 0.2,
      "octave": 4,
      "note_name": "A4",
      "frequency": 440.0
    },
    {
      "pitch": 69,
      "velocity": 0.769,
      "start_time": 1.125,
      "duration": 0.2,
      "octave": 4,
      "note_name": "A4",
      "frequency": 440.0
    },
    {
      "pitch": 69,
      "velocity": 0.886,
      "start_time": 1.375,
      "duration": 0.2,
      "octave": 4,
      "note_name": "A4",
      "frequency": 440.0
    },
    {
      "pitch": 69,
      "velocity": 0.76,
      "start_time": 1.5,
      "duration": 0.8,
      "octave": 4,
      "note_name": "A4",
      "frequency": 440.0
    },
    {
      "pitch": 69,
      "velocity": 0.955,
      "start_time": 1.625,
      "duration": 0.2,
      "octave": 4,
      "note_name": "A4",
      "frequency": 440.0
    },
    {
      "pitch": 69,
      "velocity": 0.835,
      "start_time": 1.75,
      "duration": 0.2,
      "octave": 4,
      "note_name": "A4",
      "frequency": 440.0
    },
    {
      "pitch": 69,
      "velocity": 0.937,
      "start_time": 1.875,
      "duration": 0.4,
      "octave": 4,
      "note_name": "A4",
      "frequency": 440.0
    },
    {
      "pitch": 81,
      "velocity": 0.976,
      "start_time": 2.0,
      "duration": 0.2,
      "octave": 5,
      "note_name": "A5",
      "frequency": 880.0
    },
    {
      "pitch": 48,
      "velocity": 0.3,
      "start_time": 2.0,
      "duration": 2.0,
      "octave": 3,
      "note_name": "C3",
      "frequency": 130.8127826502993
    },
    {
      "pitch": 52,
      "velocity": 0.4,
      "start_time": 2.0,
      "duration": 2.0,
      "octave": 3,
      "note_name": "E3",
      "frequency": 164.81377845643496
    },
    {
      "pitch": 57,
      "velocity": 0.5,
      "start_time": 2.0,
      "duration": 2.0,
      "octave": 3,
      "note_name": "A3",
      "frequency": 220.0
    },
    {
      "pitch": 81,
      "velocity": 0.982,
      "start_time": 2.125,
      "duration": 0.1,
      "octave": 5,
      "note_name": "A5",
      "frequency": 880.0
    },
    {
      "pitch": 81,
      "velocity": 0.718,
      "start_time": 2.25,
      "duration": 0.1,
      "octave": 5,
      "note_name": "A5",
      "frequency": 880.0
    },
    {
      "pitch": 81,
      "velocity": 0.748,
      "start_time": 2.375,
      "duration": 0.4,
      "octave": 5,
      "note_name": "A5",
      "frequency": 880.0
    },
    {
      "pitch": 69,
      "velocity": 0.7929999999999999,
      "start_time": 2.625,
      "duration": 0.4,
      "octave": 4,
      "note_name": "A4",
      "frequency": 440.0
    },
    {
      "pitch": 69,
      "velocity": 0.9670000000000001,
      "start_time": 2.75,
      "duration": 0.8,
      "octave": 4,
      "note_name": "A4",
      "frequency": 440.0
    },
    {
      "pitch": 81,
      "velocity": 0.976,
      "start_time": 2.875,
      "duration": 0.8,
      "octave": 5,
      "note_name": "A5",
      "frequency": 880.0
    },
    {
      "pitch": 81,
      "velocity": 0.7869999999999999,
      "start_time": 3.0,
      "duration": 0.2,
      "octave": 5,
      "note_name": "A5",
      "frequency": 880.0
    },
    {
      "pitch": 69,
      "velocity": 0.85,
      "start_time": 3.25,
      "duration": 0.2,
      "octave": 4,
      "note_name": "A4",
      "frequency": 440.0
    },
    {
      "pitch": 81,
      "velocity": 0.7749999999999999,
      "start_time": 3.5,
      "duration": 0.4,
      "octave": 5,
      "note_name": "A5",
      "frequency": 880.0
    },
    {
      "pitch": 69,
      "velocity": 0.898,
      "start_time": 3.625,
      "duration": 0.8,
      "octave": 4,
      "note_name": "A4",
      "frequency": 440.0
    },
    {
      "pitch": 81,
      "velocity": 0.871,
      "start_time": 3.75,
      "duration": 0.2,
      "octave": 5,
      "note_name": "A5",
      "frequency": 880.0
    },
    {
      "pitch": 81,
      "velocity": 0.931,
      "start_time": 3.875,
      "duration": 0.8,
      "octave": 5,
      "note_name": "A5",
      "frequency": 880.0
    },
    {
      "pitch": 81,
      "velocity": 0.9430000000000001,
      "start_time": 4.0,
      "duration": 0.8,
      "octave": 5,
      "note_name": "A5",
      "frequency": 880.0
    },
    {
      "pitch": 62,
      "velocity": 0.3,
      "start_time": 4.0,
      "duration": 2.0,
      "octave": 3,
      "note_name": "D3",
      "frequency": 293.6647679174076
    },
    {
      "pitch": 55,
      "velocity": 0.4,
      "start_time": 4.0,
      "duration": 2.0,
      "octave": 3,
      "note_name": "G3",
      "frequency": 195.99771799087463
    },
    {
      "pitch": 59,
      "velocity": 0.5,
      "start_time": 4.0,
      "duration": 2.0,
      "octave": 3,
      "note_name": "B3",
      "frequency": 246.94165062806206
    },
    {
      "pitch": 81,
      "velocity": 0.949,
      "start_time": 4.25,
      "duration": 0.1,
      "octave": 5,
      "note_name": "A5",
      "frequency": 880.0
    },
    {
      "pitch": 81,
      "velocity": 0.931,
      "start_time": 4.375,
      "duration": 0.2,
      "octave": 5,
      "note_name": "A5",
      "frequency": 880.0
    },
    {
      "pitch": 81,
      "velocity": 0.853,
      "start_time": 4.5,
      "duration": 0.8,
      "octave": 5,
      "note_name": "A5",
      "frequency": 880.0
    },
    {
      "pitch": 81,
      "velocity": 0.949,
      "start_time": 4.625,
      "duration": 0.1,
      "octave": 5,
      "note_name": "A5",
      "frequency": 880.0
    },
    {
      "pitch": 69,
      "velocity": 0.877,
      "start_time": 4.75,
      "duration": 0.4,
      "octave": 4,
      "note_name": "A4",
      "frequency": 440.0
    },
    {
      "pitch": 81,
      "velocity": 0.769,
      "start_time": 5.0,
      "duration": 0.8,
      "octave": 5,
      "note_name": "A5",
      "frequency": 880.0
    },
    {
      "pitch": 81,
      "velocity": 0.862,
      "start_time": 5.125,
      "duration": 0.8,
      "octave": 5,
      "note_name": "A5",
      "frequency": 880.0
    },
    {
      "pitch": 81,
      "velocity": 0.994,
      "start_time": 5.25,
      "duration": 0.4,
      "octave": 5,
      "note_name": "A5",
      "frequency": 880.0
    },
    {
      "pitch": 81,
      "velocity": 0.988,
      "start_time": 5.375,
      "duration": 0.4,
      "octave": 5,
      "note_name": "A5",
      "frequency": 880.0
    },
    {
      "pitch": 69,
      "velocity": 0.748,
      "start_time": 5.5,
      "duration": 0.2,
      "octave": 4,
      "note_name": "A4",
      "frequency": 440.0
    },
    {
      "pitch": 81,
      "velocity": 0.904,
      "start_time": 5.625,
      "duration": 0.4,
      "octave": 5,
      "note_name": "A5",
      "frequency": 880.0
    },
    {
      "pitch": 81,
      "velocity": 0.913,
      "start_time": 5.75,
      "duration": 0.1,
      "octave": 5,
      "note_name": "A5",
      "frequency": 880.0
    },
    {
      "pitch": 69,
      "velocity": 0.724,
      "start_time": 6.0,
      "duration": 0.2,
      "octave": 4,
      "note_name": "A4",
      "frequency": 440.0
    },
    {
      "pitch": 66,
      "velocity": 0.3,
      "start_time": 6.0,
      "duration": 2.0,
      "octave": 3,
      "note_name": "F#3",
      "frequency": 369.9944227116344
    },
    {
      "pitch": 59,
      "velocity": 0.4,
      "start_time": 6.0,
      "duration": 2.0,
      "octave": 3,
      "note_name": "B3",
      "frequency": 246.94165062806206
    },
    {
      "pitch": 64,
      "velocity": 0.5,
      "start_time": 6.0,
      "duration": 2.0,
      "octave": 3,
      "note_name": "E3",
      "frequency": 329.6275569128699
    },
    {
      "pitch": 81,
      "velocity": 0.9430000000000001,
      "start_time": 6.125,
      "duration": 0.2,
      "octave": 5,
      "note_name": "A5",
      "frequency": 880.0
    },
    {
      "pitch": 69,
      "velocity": 0.9670000000000001,
      "start_time": 6.5,
      "duration": 0.4,
      "octave": 4,
      "note_name": "A4",
      "frequency": 440.0
    },
    {
      "pitch": 81,
      "velocity": 0.715,
      "start_time": 6.625,
      "duration": 0.4,
      "octave": 5,
      "note_name": "A5",
      "frequency": 880.0
    },
    {
      "pitch": 69,
      "velocity": 0.955,
      "start_time": 6.75,
      "duration": 0.8,
      "octave": 4,
      "note_name": "A4",
      "frequency": 440.0
    },
    {
      "pitch": 69,
      "velocity": 0.9099999999999999,
      "start_time": 6.875,
      "duration": 0.2,
      "octave": 4,
      "note_name": "A4",
      "frequency": 440.0
    },
    {
      "pitch": 81,
      "velocity": 0.919,
      "start_time": 7.0,
      "duration": 0.8,
      "octave": 5,
      "note_name": "A5",
      "frequency": 880.0
    },
    {
      "pitch": 69,
      "velocity": 0.838,
      "start_time": 7.125,
      "duration": 0.8,
      "octave": 4,
      "note_name": "A4",
      "frequency": 440.0
    },
    {
      "pitch": 69,
      "velocity": 0.826,
      "start_time": 7.25,
      "duration": 0.2,
      "octave": 4,
      "note_name": "A4",
      "frequency": 440.0
    },
    {
      "pitch": 81,
      "velocity": 0.886,
      "start_time": 7.375,
      "duration": 0.1,
      "octave": 5,
      "note_name": "A5",
      "frequency": 880.0
    },
    {
      "pitch": 69,
      "velocity": 0.841,
      "start_time": 7.5,
      "duration": 0.1,
      "octave": 4,
      "note_name": "A4",
      "frequency": 440.0
    },
    {
      "pitch": 69,
      "velocity": 0.835,
      "start_time": 7.625,
      "duration": 0.2,
      "octave": 4,
      "note_name": "A4",
      "frequency": 440.0
    },
    {
      "pitch": 81,
      "velocity": 0.94,
      "start_time": 7.75,
      "duration": 0.4,
      "octave": 5,
      "note_name": "A5",
      "frequency": 880.0
    },
    {
      "pitch": 69,
      "velocity": 0.901,
      "start_time": 7.875,
      "duration": 0.4,
      "octave": 4,
      "note_name": "A4",
      "frequency": 440.0
    },
    {
      "pitch": 69,
      "velocity": 0.853,
      "start_time": 8.0,
      "duration": 0.8,
      "octave": 4,
      "note_name": "A4",
      "frequency": 440.0
    },
    {
      "pitch": 48,
      "velocity": 0.3,
      "start_time": 8.0,
      "duration": 2.0,
      "octave": 3,
      "note_name": "C3",
      "frequency": 130.8127826502993
    },
    {
      "pitch": 52,
      "velocity": 0.4,
      "start_time": 8.0,
      "duration": 2.0,
      "octave": 3,
      "note_name": "E3",
      "frequency": 164.81377845643496
    },
    {
      "pitch": 57,
      "velocity": 0.5,
      "start_time": 8.0,
      "duration": 2.0,
      "octave": 3,
      "note_name": "A3",
      "frequency": 220.0
    },
    {
      "pitch": 69,
      "velocity": 0.715,
      "start_time": 8.125,
      "duration": 0.4,
      "octave": 4,
      "note_name": "A4",
      "frequency": 440.0
    },
    {
      "pitch": 81,
      "velocity": 0.703,
      "start_time": 8.25,
      "duration": 0.4,
      "octave": 5,
      "note_name": "A5",
      "frequency": 880.0
    },
    {
      "pitch": 81,
      "velocity": 0.778,
      "start_time": 8.375,
      "duration": 0.2,
      "octave": 5,
      "note_name": "A5",
      "frequency": 880.0
    },
    {
      "pitch": 81,
      "velocity": 0.877,
      "start_time": 8.5,
      "duration": 0.4,
      "octave": 5,
      "note_name": "A5",
      "frequency": 880.0
    },
    {
      "pitch": 69,
      "velocity": 0.952,
      "start_time": 8.625,
      "duration": 0.1,
      "octave": 4,
      "note_name": "A4",
      "frequency": 440.0
    },
    {
      "pitch": 69,
      "velocity": 0.826,
      "start_time": 8.75,
      "duration": 0.2,
      "octave": 4,
      "note_name": "A4",
      "frequency": 440.0
    },
    {
      "pitch": 69,
      "velocity": 0.817,
      "start_time": 8.875,
      "duration": 0.8,
      "octave": 4,
      "note_name": "A4",
      "frequency": 440.0
    },
    {
      "pitch": 69,
      "velocity": 0.913,
      "start_time": 9.0,
      "duration": 0.8,
      "octave": 4,
      "note_name": "A4",
      "frequency": 440.0
    },
    {
      "pitch": 69,
      "velocity": 0.8109999999999999,
      "start_time": 9.125,
      "duration": 0.8,
      "octave": 4,
      "note_name": "A4",
      "frequency": 440.0
    },
    {
      "pitch": 69,
      "velocity": 0.904,
      "start_time": 9.25,
      "duration": 0.8,
      "octave": 4,
      "note_name": "A4",
      "frequency": 440.0
    },
    {
      "pitch": 81,
      "velocity": 0.958,
      "start_time": 9.5,
      "duration": 0.1,
      "octave": 5,
      "note_name": "A5",
      "frequency": 880.0
    },
    {
      "pitch": 69,
      "velocity": 0.835,
      "start_time": 9.625,
      "duration": 0.2,
      "octave": 4,
      "note_name": "A4",
      "frequency": 440.0
    },
    {
      "pitch": 81,
      "velocity": 0.817,
      "start_time": 9.75,
      "duration": 0.4,
      "octave": 5,
      "note_name": "A5",
      "frequency": 880.0
    },
    {
      "pitch": 69,
      "velocity": 0.931,
      "start_time": 9.875,
      "duration": 0.4,
      "octave": 4,
      "note_name": "A4",
      "frequency": 440.0
    }
  ]
}