{
  "style": "classical",
  "tempo": 120,
  "duration": 10,
  "note_count": 67,
  "notes": [
    {
      "pitch": 83,
      "velocity": 0.792,
      "start_time": 0.0,
      "duration": 0.125,
      "octave": 5,
      "note_name": "B5",
      "frequency": 987.7666025122483
    },
    {
      "pitch": 48,
      "velocity": 0.3,
      "start_time": 0.0,
      "duration": 2.0,
      "octave": 3,
      "note_name": "C3",
      "frequency": 130.8127826502993
    },
    {
      "pitch": 52,
      "velocity": 0.4,
      "start_time": 0.0,
      "duration": 2.0,
      "octave": 3,
      "note_name": "E3",
      "frequency": 164.81377845643496
    },
    {
      "pitch": 55,
      "velocity": 0.5,
      "start_time": 0.0,
      "duration": 2.0,
      "octave": 3,
      "note_name": "G3",
      "frequency": 195.99771799087463
    },
    {
      "pitch": 59,
      "velocity": 0.6839999999999999,
      "start_time": 0.125,
      "duration": 1.0,
      "octave": 3,
      "note_name": "B3",
      "frequency": 246.94165062806206
    },
    {
      "pitch": 83,
      "velocity": 0.524,
      "start_time": 0.25,
      "duration": 0.125,
      "octave": 5,
      "note_name": "B5",
      "frequency": 987.7666025122483
    },
    {
      "pitch": 95,
      "velocity": 0.5800000000000001,
      "start_time": 0.375,
      "duration": 1.0,
      "octave": 6,
      "note_name": "B6",
      "frequency": 1975.533205024496
    },
    {
      "pitch": 83,
      "velocity": 0.66,
      "start_time": 0.5,
      "duration": 0.5,
      "octave": 5,
      "note_name": "B5",
      "frequency": 987.7666025122483
    },
    {
      "pitch": 71,
      "velocity": 0.5840000000000001,
      "start_time": 0.75,
      "duration": 0.5,
      "octave": 4,
      "note_name": "B4",
      "frequency": 493.8833012561241
    },
    {
      "pitch": 59,
      "velocity": 0.41200000000000003,
      "start_time": 0.875,
      "duration": 0.25,
      "octave": 3,
      "note_name": "B3",
      "frequency": 246.94165062806206
    },
    {
      "pitch": 83,
      "velocity": 0.648,
      "start_time": 1.375,
      "duration": 0.25,
      "octave": 5,
      "note_name": "B5",
      "frequency": 987.7666025122483
    },
    {
      "pitch": 59,
      "velocity": 0.48000000000000004,
      "start_time": 1.5,
      "duration": 1.0,
      "octave": 3,
      "note_name": "B3",
      "frequency": 246.94165062806206
    },
    {
      "pitch": 59,
      "velocity": 0.74,
      "start_time": 1.625,
      "duration": 0.25,
      "octave": 3,
      "note_name": "B3",
      "frequency": 246.94165062806206
    },
    {
      "pitch": 83,
      "velocity": 0.5800000000000001,
      "start_time": 1.75,
      "duration": 0.25,
      "octave": 5,
      "note_name": "B5",
      "frequency": 987.7666025122483
    },
    {
      "pitch": 83,
      "velocity": 0.7160000000000001,
      "start_time": 1.875,
      "duration": 0.5,
      "octave": 5,
      "note_name": "B5",
      "frequency": 987.7666025122483
    },
    {
      "pitch": 71,
      "velocity": 0.768,
      "start_time": 2.0,
      "duration": 0.25,
      "octave": 4,
      "note_name": "B4",
      "frequency": 493.8833012561241
    },
    {
      "pitch": 66,
      "velocity": 0.3,
      "start_time": 2.0,
      "duration": 2.0,
      "octave": 3,
      "note_name": "F#3",
      "frequency": 369.9944227116344
    },
    {
      "pitch": 57,
      "velocity": 0.4,
      "start_time": 2.0,
      "duration": 2.0,
      "octave": 3,
      "note_name": "A3",
      "frequency": 220.0
    },
    {
      "pitch": 61,
      "velocity": 0.5,
      "start_time": 2.0,
      "duration": 2.0,
      "octave": 3,
      "note_name": "C#3",
      "frequency": 277.1826309768721
    },
    {
      "pitch": 71,
      "velocity": 0.776,
      "start_time": 2.125,
      "duration": 0.125,
      "octave": 4,
      "note_name": "B4",
      "frequency": 493.8833012561241
    },
    {
      "pitch": 95,
      "velocity": 0.42400000000000004,
      "start_time": 2.25,
      "duration": 0.125,
      "octave": 6,
      "note_name": "B6",
      "frequency": 1975.533205024496
    },
    {
      "pitch": 71,
      "velocity": 0.768,
      "start_time": 2.875,
      "duration": 1.0,
      "octave": 4,
      "note_name": "B4",
      "frequency": 493.8833012561241
    },
    {
      "pitch": 71,
      "velocity": 0.516,
      "start_time": 3.0,
      "duration": 0.25,
      "octave": 4,
      "note_name": "B4",
      "frequency": 493.8833012561241
    },
    {
      "pitch": 83,
      "velocity": 0.6000000000000001,
      "start_time": 3.25,
      "duration": 0.25,
      "octave": 5,
      "note_name": "B5",
      "frequency": 987.7666025122483
    },
    {
      "pitch": 71,
      "velocity": 0.5,
      "start_time": 3.5,
      "duration": 0.5,
      "octave": 4,
      "note_name": "B4",
      "frequency": 493.8833012561241
    },
    {
      "pitch": 83,
      "velocity": 0.664,
      "start_time": 3.625,
      "duration": 1.0,
      "octave": 5,
      "note_name": "B5",
      "frequency": 987.7666025122483
    },
    {
      "pitch": 95,
      "velocity": 0.628,
      "start_time": 3.75,
      "duration": 0.25,
      "octave": 6,
      "note_name": "B6",
      "frequency": 1975.533205024496
    },
    {
      "pitch": 95,
      "velocity": 0.7080000000000001,
      "start_time": 3.875,
      "duration": 1.0,
      "octave": 6,
      "note_name": "B6",
      "frequency": 1975.533205024496
    },
    {
      "pitch": 71,
      "velocity": 0.7240000000000001,
      "start_time": 4.0,
      "duration": 1.0,
      "octave": 4,
      "note_name": "B4",
      "frequency": 493.8833012561241
    },
    {
      "pitch": 58,
      "velocity": 0.3,
      "start_time": 4.0,
      "duration": 2.0,
      "octave": 3,
      "note_name": "A#3",
      "frequency": 233.08188075904496
    },
    {
      "pitch": 62,
      "velocity": 0.4,
      "start_time": 4.0,
      "duration": 2.0,
      "octave": 3,
      "note_name": "D3",
      "frequency": 293.6647679174076
    },
    {
      "pitch": 53,
      "velocity": 0.5,
      "start_time": 4.0,
      "duration": 2.0,
      "octave": 3,
      "note_name": "F3",
      "frequency": 174.61411571650194
    },
    {
      "pitch": 95,
      "velocity": 0.732,
      "start_time": 4.25,
      "duration": 0.125,
      "octave": 6,
      "note_name": "B6",
      "frequency": 1975.533205024496
    },
    {
      "pitch": 71,
      "velocity": 0.7080000000000001,
      "start_time": 4.375,
      "duration": 0.25,
      "octave": 4,
      "note_name": "B4",
      "frequency": 493.8833012561241
    },
    {
      "pitch": 71,
      "velocity": 0.6040000000000001,
      "start_time": 4.5,
      "duration": 1.0,
      "octave": 4,
      "note_name": "B4",
      "frequency": 493.8833012561241
    },
    {
      "pitch": 83,
      "velocity": 0.636,
      "start_time": 4.75,
      "duration": 0.5,
      "octave": 5,
      "note_name": "B5",
      "frequency": 987.7666025122483
    },
    {
      "pitch": 83,
      "velocity": 0.464,
      "start_time": 5.5,
      "duration": 0.25,
      "octave": 5,
      "note_name": "B5",
      "frequency": 987.7666025122483
    },
    {
      "pitch": 95,
      "velocity": 0.672,
      "start_time": 5.625,
      "duration": 0.5,
      "octave": 6,
      "note_name": "B6",
      "frequency": 1975.533205024496
    },
    {
      "pitch": 62,
      "velocity": 0.3,
      "start_time": 6.0,
      "duration": 2.0,
      "octave": 3,
      "note_name": "D3",
      "frequency": 293.6647679174076
    },
    {
      "pitch": 66,
      "velocity": 0.4,
      "start_time": 6.0,
      "duration": 2.0,
      "octave": 3,
      "note_name": "F#3",
      "frequency": 369.9944227116344
    },
    {
      "pitch": 57,
      "velocity": 0.5,
      "start_time": 6.0,
      "duration": 2.0,
      "octave": 3,
      "note_name": "A3",
      "frequency": 220.0
    },
    {
      "pitch": 95,
      "velocity": 0.7240000000000001,
      "start_time": 6.125,
      "duration": 0.25,
      "octave": 6,
      "note_name": "B6",
      "frequency": 1975.533205024496
    },
    {
      "pitch": 83,
      "velocity": 0.756,
      "start_time": 6.5,
      "duration": 0.5,
      "octave": 5,
      "note_name": "B5",
      "frequency": 987.7666025122483
    },
    {
      "pitch": 71,
      "velocity": 0.42000000000000004,
      "start_time": 6.625,
      "duration": 0.5,
      "octave": 4,
      "note_name": "B4",
      "frequency": 493.8833012561241
    },
    {
      "pitch": 59,
      "velocity": 0.74,
      "start_time": 6.75,
      "duration": 1.0,
      "octave": 3,
      "note_name": "B3",
      "frequency": 246.94165062806206
    },
    {
      "pitch": 59,
      "velocity": 0.6799999999999999,
      "start_time": 6.875,
      "duration": 0.25,
      "octave": 3,
      "note_name": "B3",
      "frequency": 246.94165062806206
    },
    {
      "pitch": 71,
      "velocity": 0.692,
      "start_time": 7.0,
      "duration": 1.0,
      "octave": 4,
      "note_name": "B4",
      "frequency": 493.8833012561241
    },
    {
      "pitch": 83,
      "velocity": 0.5840000000000001,
      "start_time": 7.125,
      "duration": 1.0,
      "octave": 5,
      "note_name": "B5",
      "frequency": 987.7666025122483
    },
    {
      "pitch": 83,
      "velocity": 0.5680000000000001,
      "start_time": 7.25,
      "duration": 0.25,
      "octave": 5,
      "note_name": "B5",
      "frequency": 987.7666025122483
    },
    {
      "pitch": 59,
      "velocity": 0.5880000000000001,
      "start_time": 7.5,
      "duration": 0.125,
      "octave": 3,
      "note_name": "B3",
      "frequency": 246.94165062806206
    },
    {
      "pitch": 59,
      "velocity": 0.668,
      "start_time": 7.875,
      "duration": 0.5,
      "octave": 3,
      "note_name": "B3",
      "frequency": 246.94165062806206
    },
    {
      "pitch": 48,
      "velocity": 0.3,
      "start_time": 8.0,
      "duration": 2.0,
      "octave": 3,
      "note_name": "C3",
      "frequency": 130.8127826502993
    },
    {
      "pitch": 52,
      "velocity": 0.4,
      "start_time": 8.0,
      "duration": 2.0,
      "octave": 3,
      "note_name": "E3",
      "frequency": 164.81377845643496
    },
    {
      "pitch": 55,
      "velocity": 0.5,
      "start_time": 8.0,
      "duration": 2.0,
      "octave": 3,
      "note_name": "G3",
      "frequency": 195.99771799087463
    },
    {
      "pitch": 71,
      "velocity": 0.404,
      "start_time": 8.25,
      "duration": 0.5,
      "octave": 4,
      "note_name": "B4",
      "frequency": 493.8833012561241
    },
    {
      "pitch": 71,
      "velocity": 0.504,
      "start_time": 8.375,
      "duration": 0.25,
      "octave": 4,
      "note_name": "B4",
      "frequency": 493.8833012561241
    },
    {
      "pitch": 95,
      "velocity": 0.636,
      "start_time": 8.5,
      "duration": 0.5,
      "octave": 6,
      "note_name": "B6",
      "frequency": 1975.533205024496
    },
    {
      "pitch": 59,
      "velocity": 0.736,
      "start_time": 8.625,
      "duration": 0.125,
      "octave": 3,
      "note_name": "B3",
      "frequency": 246.94165062806206
    },
    {
      "pitch": 59,
      "velocity": 0.5680000000000001,
      "start_time": 8.75,
      "duration": 0.25,
      "octave": 3,
      "note_name": "B3",
      "frequency": 246.94165062806206
    },
    {
      "pitch": 83,
      "velocity": 0.556,
      "start_time": 8.875,
      "duration": 1.0,
      "octave": 5,
      "note_name": "B5",
      "frequency": 987.7666025122483
    },
    {
      "pitch": 83,
      "velocity": 0.6839999999999999,
      "start_time": 9.0,
      "duration": 1.0,
      "octave": 5,
      "note_name": "B5",
      "frequency": 987.7666025122483
    },
    {
      "pitch": 59,
      "velocity": 0.548,
      "start_time": 9.125,
      "duration": 1.0,
      "octave": 3,
      "note_name": "B3",
      "frequency": 246.94165062806206
    },
    {
      "pitch": 83,
      "velocity": 0.672,
      "start_time": 9.25,
      "duration": 1.0,
      "octave": 5,
      "note_name": "B5",
      "frequency": 987.7666025122483
    },
    {
      "pitch": 95,
      "velocity": 0.744,
      "start_time": 9.5,
      "duration": 0.125,
      "octave": 6,
      "note_name": "B6",
      "frequency": 1975.533205024496
    },
    {
      "pitch": 59,
      "velocity": 0.5800000000000001,
      "start_time": 9.625,
      "duration": 0.25,
      "octave": 3,
      "note_name": "B3",
      "frequency": 246.94165062806206
    },
    {
      "pitch": 95,
      "velocity": 0.556,
      "start_time": 9.75,
      "duration": 0.5,
      "octave": 6,
      "note_name": "B6",
      "frequency": 1975.533205024496
    },
    {
      "pitch": 83,
      "velocity": 0.7080000000000001,
      "start_time": 9.875,
      "duration": 0.5,
      "octave": 5,
      "note_name": "B5",
      "frequency": 987.7666025122483
    }
  ]
}