{
  "style": "cinematic",
  "tempo": 120,
  "duration": 10,
  "note_count": 54,
  "notes": [
    {
      "pitch": 70,
      "velocity": 0.741,
      "start_time": 0.0,
      "duration": 0.1875,
      "octave": 4,
      "note_name": "A#4",
      "frequency": 466.1637615180899
    },
    {
      "pitch": 48,
      "velocity": 0.3,
      "start_time": 0.0,
      "duration": 2.0,
      "octave": 3,
      "note_name": "C3",
      "frequency": 130.8127826502993
    },
    {
      "pitch": 51,
      "velocity": 0.4,
      "start_time": 0.0,
      "duration": 2.0,
      "octave": 3,
      "note_name": "D#3",
      "frequency": 155.56349186104046
    },
    {
      "pitch": 55,
      "velocity": 0.5,
      "start_time": 0.0,
      "duration": 2.0,
      "octave": 3,
      "note_name": "G3",
      "frequency": 195.99771799087463
    },
    {
      "pitch": 46,
      "velocity": 0.6194999999999999,
      "start_time": 0.125,
      "duration": 1.5,
      "octave": 2,
      "note_name": "A#2",
      "frequency": 116.54094037952248
    },
    {
      "pitch": 70,
      "velocity": 0.4395,
      "start_time": 0.25,
      "duration": 0.1875,
      "octave": 4,
      "note_name": "A#4",
      "frequency": 466.1637615180899
    },
    {
      "pitch": 70,
      "velocity": 0.5925,
      "start_time": 0.5,
      "duration": 0.75,
      "octave": 4,
      "note_name": "A#4",
      "frequency": 466.1637615180899
    },
    {
      "pitch": 46,
      "velocity": 0.3135,
      "start_time": 0.875,
      "duration": 0.375,
      "octave": 2,
      "note_name": "A#2",
      "frequency": 116.54094037952248
    },
    {
      "pitch": 46,
      "velocity": 0.39,
      "start_time": 1.5,
      "duration": 1.5,
      "octave": 2,
      "note_name": "A#2",
      "frequency": 116.54094037952248
    },
    {
      "pitch": 46,
      "velocity": 0.6825,
      "start_time": 1.625,
      "duration": 0.375,
      "octave": 2,
      "note_name": "A#2",
      "frequency": 116.54094037952248
    },
    {
      "pitch": 70,
      "velocity": 0.5025,
      "start_time": 1.75,
      "duration": 0.375,
      "octave": 4,
      "note_name": "A#4",
      "frequency": 466.1637615180899
    },
    {
      "pitch": 70,
      "velocity": 0.6555,
      "start_time": 1.875,
      "duration": 0.75,
      "octave": 4,
      "note_name": "A#4",
      "frequency": 466.1637615180899
    },
    {
      "pitch": 58,
      "velocity": 0.714,
      "start_time": 2.0,
      "duration": 0.375,
      "octave": 3,
      "note_name": "A#3",
      "frequency": 233.08188075904496
    },
    {
      "pitch": 62,
      "velocity": 0.3,
      "start_time": 2.0,
      "duration": 2.0,
      "octave": 3,
      "note_name": "D3",
      "frequency": 293.6647679174076
    },
    {
      "pitch": 65,
      "velocity": 0.4,
      "start_time": 2.0,
      "duration": 2.0,
      "octave": 3,
      "note_name": "F3",
      "frequency": 349.2282314330039
    },
    {
      "pitch": 57,
      "velocity": 0.5,
      "start_time": 2.0,
      "duration": 2.0,
      "octave": 3,
      "note_name": "A3",
      "frequency": 220.0
    },
    {
      "pitch": 82,
      "velocity": 0.327,
      "start_time": 2.25,
      "duration": 0.1875,
      "octave": 5,
      "note_name": "A#5",
      "frequency": 932.3275230361799
    },
    {
      "pitch": 58,
      "velocity": 0.714,
      "start_time": 2.875,
      "duration": 1.5,
      "octave": 3,
      "note_name": "A#3",
      "frequency": 233.08188075904496
    },
    {
      "pitch": 58,
      "velocity": 0.4305,
      "start_time": 3.0,
      "duration": 0.375,
      "octave": 3,
      "note_name": "A#3",
      "frequency": 233.08188075904496
    },
    {
      "pitch": 70,
      "velocity": 0.525,
      "start_time": 3.25,
      "duration": 0.375,
      "octave": 4,
      "note_name": "A#4",
      "frequency": 466.1637615180899
    },
    {
      "pitch": 58,
      "velocity": 0.4125,
      "start_time": 3.5,
      "duration": 0.75,
      "octave": 3,
      "note_name": "A#3",
      "frequency": 233.08188075904496
    },
    {
      "pitch": 70,
      "velocity": 0.597,
      "start_time": 3.625,
      "duration": 1.5,
      "octave": 4,
      "note_name": "A#4",
      "frequency": 466.1637615180899
    },
    {
      "pitch": 82,
      "velocity": 0.5565,
      "start_time": 3.75,
      "duration": 0.375,
      "octave": 5,
      "note_name": "A#5",
      "frequency": 932.3275230361799
    },
    {
      "pitch": 82,
      "velocity": 0.6465000000000001,
      "start_time": 3.875,
      "duration": 1.5,
      "octave": 5,
      "note_name": "A#5",
      "frequency": 932.3275230361799
    },
    {
      "pitch": 58,
      "velocity": 0.6645000000000001,
      "start_time": 4.0,
      "duration": 1.5,
      "octave": 3,
      "note_name": "A#3",
      "frequency": 233.08188075904496
    },
    {
      "pitch": 52,
      "velocity": 0.3,
      "start_time": 4.0,
      "duration": 2.0,
      "octave": 3,
      "note_name": "E3",
      "frequency": 164.81377845643496
    },
    {
      "pitch": 55,
      "velocity": 0.4,
      "start_time": 4.0,
      "duration": 2.0,
      "octave": 3,
      "note_name": "G3",
      "frequency": 195.99771799087463
    },
    {
      "pitch": 59,
      "velocity": 0.5,
      "start_time": 4.0,
      "duration": 2.0,
      "octave": 3,
      "note_name": "B3",
      "frequency": 246.94165062806206
    },
    {
      "pitch": 82,
      "velocity": 0.6735,
      "start_time": 4.25,
      "duration": 0.1875,
      "octave": 5,
      "note_name": "A#5",
      "frequency": 932.3275230361799
    },
    {
      "pitch": 58,
      "velocity": 0.6465000000000001,
      "start_time": 4.375,
      "duration": 0.375,
      "octave": 3,
      "note_name": "A#3",
      "frequency": 233.08188075904496
    },
    {
      "pitch": 58,
      "velocity": 0.5295,
      "start_time": 4.5,
      "duration": 1.5,
      "octave": 3,
      "note_name": "A#3",
      "frequency": 233.08188075904496
    },
    {
      "pitch": 82,
      "velocity": 0.6060000000000001,
      "start_time": 5.625,
      "duration": 0.75,
      "octave": 5,
      "note_name": "A#5",
      "frequency": 932.3275230361799
    },
    {
      "pitch": 66,
      "velocity": 0.3,
      "start_time": 6.0,
      "duration": 2.0,
      "octave": 3,
      "note_name": "F#3",
      "frequency": 369.9944227116344
    },
    {
      "pitch": 57,
      "velocity": 0.4,
      "start_time": 6.0,
      "duration": 2.0,
      "octave": 3,
      "note_name": "A3",
      "frequency": 220.0
    },
    {
      "pitch": 60,
      "velocity": 0.5,
      "start_time": 6.0,
      "duration": 2.0,
      "octave": 3,
      "note_name": "C3",
      "frequency": 261.6255653005986
    },
    {
      "pitch": 82,
      "velocity": 0.6645000000000001,
      "start_time": 6.125,
      "duration": 0.375,
      "octave": 5,
      "note_name": "A#5",
      "frequency": 932.3275230361799
    },
    {
      "pitch": 70,
      "velocity": 0.7005,
      "start_time": 6.5,
      "duration": 0.75,
      "octave": 4,
      "note_name": "A#4",
      "frequency": 466.1637615180899
    },
    {
      "pitch": 58,
      "velocity": 0.3225,
      "start_time": 6.625,
      "duration": 0.75,
      "octave": 3,
      "note_name": "A#3",
      "frequency": 233.08188075904496
    },
    {
      "pitch": 46,
      "velocity": 0.6825,
      "start_time": 6.75,
      "duration": 1.5,
      "octave": 2,
      "note_name": "A#2",
      "frequency": 116.54094037952248
    },
    {
      "pitch": 46,
      "velocity": 0.615,
      "start_time": 6.875,
      "duration": 0.375,
      "octave": 2,
      "note_name": "A#2",
      "frequency": 116.54094037952248
    },
    {
      "pitch": 58,
      "velocity": 0.6285000000000001,
      "start_time": 7.0,
      "duration": 1.5,
      "octave": 3,
      "note_name": "A#3",
      "frequency": 233.08188075904496
    },
    {
      "pitch": 70,
      "velocity": 0.507,
      "start_time": 7.125,
      "duration": 1.5,
      "octave": 4,
      "note_name": "A#4",
      "frequency": 466.1637615180899
    },
    {
      "pitch": 46,
      "velocity": 0.5115,
      "start_time": 7.5,
      "duration": 0.1875,
      "octave": 2,
      "note_name": "A#2",
      "frequency": 116.54094037952248
    },
    {
      "pitch": 48,
      "velocity": 0.3,
      "start_time": 8.0,
      "duration": 2.0,
      "octave": 3,
      "note_name": "C3",
      "frequency": 130.8127826502993
    },
    {
      "pitch": 51,
      "velocity": 0.4,
      "start_time": 8.0,
      "duration": 2.0,
      "octave": 3,
      "note_name": "D#3",
      "frequency": 155.56349186104046
    },
    {
      "pitch": 55,
      "velocity": 0.5,
      "start_time": 8.0,
      "duration": 2.0,
      "octave": 3,
      "note_name": "G3",
      "frequency": 195.99771799087463
    },
    {
      "pitch": 58,
      "velocity": 0.3045,
      "start_time": 8.25,
      "duration": 0.75,
      "octave": 3,
      "note_name": "A#3",
      "frequency": 233.08188075904496
    },
    {
      "pitch": 82,
      "velocity": 0.5655,
      "start_time": 8.5,
      "duration": 0.75,
      "octave": 5,
      "note_name": "A#5",
      "frequency": 932.3275230361799
    },
    {
      "pitch": 70,
      "velocity": 0.47550000000000003,
      "start_time": 8.875,
      "duration": 1.5,
      "octave": 4,
      "note_name": "A#4",
      "frequency": 466.1637615180899
    },
    {
      "pitch": 46,
      "velocity": 0.4665,
      "start_time": 9.125,
      "duration": 1.5,
      "octave": 2,
      "note_name": "A#2",
      "frequency": 116.54094037952248
    },
    {
      "pitch": 70,
      "velocity": 0.6060000000000001,
      "start_time": 9.25,
      "duration": 1.5,
      "octave": 4,
      "note_name": "A#4",
      "frequency": 466.1637615180899
    },
    {
      "pitch": 82,
      "velocity": 0.687,
      "start_time": 9.5,
      "duration": 0.1875,
      "octave": 5,
      "note_name": "A#5",
      "frequency": 932.3275230361799
    },
    {
      "pitch": 82,
      "velocity": 0.47550000000000003,
      "start_time": 9.75,
      "duration": 0.75,
      "octave": 5,
      "note_name": "A#5",
      "frequency": 932.3275230361799
    },
    {
      "pitch": 70,
      "velocity": 0.6465000000000001,
      "start_time": 9.875,
      "duration": 0.75,
      "octave": 4,
      "note_name": "A#4",
      "frequency": 466.1637615180899
    }
  ]
}